<?xml version="1.0" encoding="UTF-8"?>
<svg width="512" height="512" viewBox="0 0 512 512" fill="none" xmlns="http://www.w3.org/2000/svg">
  <!-- Control panel with knobs and display -->
  <!-- Main device body -->
  <rect x="110" y="140" width="292" height="180" rx="10" fill="#E8EAF6" stroke="#3F51B5" stroke-width="6"/>
  
  <!-- Display screen -->
  <rect x="130" y="160" width="170" height="80" rx="4" fill="#C5CAE9" stroke="#3F51B5" stroke-width="4"/>
  
  <!-- Graph on screen -->
  <polyline points="140,210 155,190 170,200 185,180 200,220 215,190 230,210 245,200 260,220 275,190 290,210" 
    stroke="#3F51B5" stroke-width="2" fill="none"/>
  
  <!-- Control knobs -->
  <circle cx="350" cy="180" r="18" fill="#9FA8DA" stroke="#3F51B5" stroke-width="4"/>
  <line x1="350" y1="180" x2="350" y2="165" stroke="#3F51B5" stroke-width="4" stroke-linecap="round"/>
  
  <circle cx="350" cy="240" r="18" fill="#9FA8DA" stroke="#3F51B5" stroke-width="4"/>
  <line x1="350" y1="240" x2="350" y2="225" stroke="#3F51B5" stroke-width="4" stroke-linecap="round"/>
  
  <!-- Connection ports -->
  <rect x="140" y="260" width="232" height="30" rx="4" fill="#C5CAE9" stroke="#3F51B5" stroke-width="4"/>
  <circle cx="165" cy="275" r="8" fill="#3F51B5"/>
  <circle cx="195" cy="275" r="8" fill="#3F51B5"/>
  <circle cx="225" cy="275" r="8" fill="#3F51B5"/>
  <circle cx="255" cy="275" r="8" fill="#3F51B5"/>
  <circle cx="285" cy="275" r="8" fill="#3F51B5"/>
  <circle cx="315" cy="275" r="8" fill="#3F51B5"/>
  
  <!-- Connection lines -->
  <line x1="130" y1="350" x2="215" y2="320" stroke="#3F51B5" stroke-width="4" stroke-linecap="round"/>
  <line x1="215" y1="320" x2="297" y2="320" stroke="#3F51B5" stroke-width="4" stroke-linecap="round"/>
  <line x1="297" y1="320" x2="382" y2="350" stroke="#3F51B5" stroke-width="4" stroke-linecap="round"/>
</svg> 